<svg version="1.1" id="Layer_1" xmlns="http://www.w3.org/2000/svg" xmlns:xlink="http://www.w3.org/1999/xlink" x="0px" y="0px"
	 width="100%" viewBox="0 0 500 500" enable-background="new 0 0 500 500" xml:space="preserve">
<path fill="#113D76" opacity="1.000000" stroke="none" 
	d="
M317.000000,501.000000 
	C211.333359,501.000000 106.166718,501.000000 1.000057,501.000000 
	C1.000038,334.333405 1.000038,167.666794 1.000019,1.000146 
	C167.666565,1.000097 334.333130,1.000097 500.999756,1.000049 
	C500.999847,167.666519 500.999847,334.333038 500.999939,500.999786 
	C439.833344,501.000000 378.666656,501.000000 317.000000,501.000000 
M162.892441,401.484070 
	C163.707626,401.320251 164.543472,401.224182 165.334915,400.982605 
	C180.491623,396.356018 192.557602,388.902466 199.389297,373.102356 
	C208.404327,352.252808 219.330109,332.215912 229.761032,311.998138 
	C234.481720,302.848267 241.587357,296.102173 251.806656,292.902802 
	C256.333679,291.485535 259.017273,291.706757 259.787811,297.059753 
	C260.088135,299.146088 261.215790,301.121521 262.020996,303.125641 
	C271.790405,327.441162 282.210388,351.521240 300.783112,370.628571 
	C319.779877,390.172119 341.636139,404.198456 370.644501,401.885895 
	C374.949982,401.542694 379.306427,401.838165 383.639282,401.838165 
	C387.910034,401.838165 392.180786,401.838196 396.349365,401.838196 
	C398.319183,386.614166 391.025482,366.216736 379.985321,354.501587 
	C377.615723,351.987122 375.130096,350.628540 371.692810,351.159454 
	C363.213623,352.469208 356.497345,348.662079 350.360748,343.540924 
	C347.819183,341.419952 345.141327,339.132935 343.473114,336.352753 
	C336.822693,325.269592 329.391846,314.455414 324.345795,302.646118 
	C309.071991,266.900818 294.999664,230.644226 280.010254,194.774445 
	C271.836853,175.215378 261.938354,156.459259 247.018143,141.046356 
	C229.098267,122.534698 208.019272,110.842545 181.211609,111.915405 
	C169.065735,112.401497 156.884232,111.997879 144.718903,111.997879 
	C139.936447,111.997879 135.153976,111.997879 130.459015,111.997879 
	C128.647568,125.074959 132.453781,138.418839 140.503723,148.412537 
	C148.067169,157.802261 156.789276,164.585373 169.884933,162.565720 
	C172.489349,162.164047 175.241669,162.779175 177.869354,162.460327 
	C188.698135,161.146286 196.482788,166.386688 202.846329,174.201477 
	C219.598999,194.774765 228.266602,219.558716 238.989136,243.623077 
	C236.851624,244.237595 235.023117,244.540161 233.385773,245.270996 
	C224.174225,249.382416 214.367188,252.596527 205.962143,257.986298 
	C188.928787,268.909027 178.090927,285.624786 169.246338,303.259827 
	C156.960327,327.756653 145.793396,352.814514 134.131653,377.624817 
	C131.327576,383.590515 128.461441,389.527069 125.651855,395.418243 
	C134.117340,401.219635 148.467041,403.641174 162.892441,401.484070 
M382.102356,144.520828 
	C391.942719,126.143570 387.896790,106.722809 371.627380,94.240021 
	C355.756897,82.063332 332.423920,85.302216 319.290375,101.505051 
	C306.864227,116.835205 309.070953,140.604019 323.659973,153.521072 
	C340.779297,168.678452 368.823792,166.123123 382.102356,144.520828 
z"/>
<path fill="#FEFEFE" opacity="1.000000" stroke="none" 
	d="
M162.483826,401.605591 
	C148.467041,403.641174 134.117340,401.219635 125.651855,395.418243 
	C128.461441,389.527069 131.327576,383.590515 134.131653,377.624817 
	C145.793396,352.814514 156.960327,327.756653 169.246338,303.259827 
	C178.090927,285.624786 188.928787,268.909027 205.962143,257.986298 
	C214.367188,252.596527 224.174225,249.382416 233.385773,245.270996 
	C235.023117,244.540161 236.851624,244.237595 238.989136,243.623077 
	C228.266602,219.558716 219.598999,194.774765 202.846329,174.201477 
	C196.482788,166.386688 188.698135,161.146286 177.869354,162.460327 
	C175.241669,162.779175 172.489349,162.164047 169.884933,162.565720 
	C156.789276,164.585373 148.067169,157.802261 140.503723,148.412537 
	C132.453781,138.418839 128.647568,125.074959 130.459015,111.997879 
	C135.153976,111.997879 139.936447,111.997879 144.718903,111.997879 
	C156.884232,111.997879 169.065735,112.401497 181.211609,111.915405 
	C208.019272,110.842545 229.098267,122.534698 247.018143,141.046356 
	C261.938354,156.459259 271.836853,175.215378 280.010254,194.774445 
	C294.999664,230.644226 309.071991,266.900818 324.345795,302.646118 
	C329.391846,314.455414 336.822693,325.269592 343.473114,336.352753 
	C345.141327,339.132935 347.819183,341.419952 350.360748,343.540924 
	C356.497345,348.662079 363.213623,352.469208 371.692810,351.159454 
	C375.130096,350.628540 377.615723,351.987122 379.985321,354.501587 
	C391.025482,366.216736 398.319183,386.614166 396.349365,401.838196 
	C392.180786,401.838196 387.910034,401.838165 383.639282,401.838165 
	C379.306427,401.838165 374.949982,401.542694 370.644501,401.885895 
	C341.636139,404.198456 319.779877,390.172119 300.783112,370.628571 
	C282.210388,351.521240 271.790405,327.441162 262.020996,303.125641 
	C261.215790,301.121521 260.088135,299.146088 259.787811,297.059753 
	C259.017273,291.706757 256.333679,291.485535 251.806656,292.902802 
	C241.587357,296.102173 234.481720,302.848267 229.761032,311.998138 
	C219.330109,332.215912 208.404327,352.252808 199.389297,373.102356 
	C192.557602,388.902466 180.491623,396.356018 165.334915,400.982605 
	C164.543472,401.224182 163.707626,401.320251 162.483826,401.605591 
z"/>
<path fill="#2EBDEF" opacity="1.000000" stroke="none" 
	d="
M381.943695,144.850861 
	C368.823792,166.123123 340.779297,168.678452 323.659973,153.521072 
	C309.070953,140.604019 306.864227,116.835205 319.290375,101.505051 
	C332.423920,85.302216 355.756897,82.063332 371.627380,94.240021 
	C387.896790,106.722809 391.942719,126.143570 381.943695,144.850861 
z"/>
</svg>